<?xml version="1.0" encoding="UTF-8" standalone="no"?>
<svg viewBox="0 0 105 105" width="100%" height="100%" xmlns="http://www.w3.org/2000/svg" xmlns:svg="http://www.w3.org/2000/svg">
  <g fill="#000000" transform="matrix(1.9139244,0,0,1.9770989,-699.48859,102.92369)">
    <path d="m 402.44862,-26.28 v 13.824 c -2.44799,1.152 -4.96799,1.656 -7.704,1.656 -2.808,0 -5.25599,-0.576 -7.416,-1.8 -2.15999,-1.224 -3.888,-2.952 -5.03999,-5.112 -1.22401,-2.16 -1.8,-4.68 -1.8,-7.488 0,-4.32 1.29599,-7.848 3.95999,-10.44 2.592,-2.592 6.12,-3.96 10.44,-3.96 4.752,0 8.784,1.872 12.24,5.616 l 9.072,-8.208 c -2.51999,-2.952 -5.61599,-5.256 -9.36,-6.84 -3.74399,-1.584 -7.992,-2.376 -12.67199,-2.376 -5.40001,0 -10.22401,1.152 -14.47201,3.384 -4.32,2.232 -7.632,5.328 -10.008,9.288 -2.44799,4.032 -3.6,8.496 -3.6,13.536 0,5.04 1.15201,9.576 3.6,13.536 2.376,4.032 5.688,7.128 9.936,9.36 4.17601,2.232 8.928,3.312 14.256,3.312 3.744,0 7.488,-0.504 11.232,-1.656 3.744,-1.08 7.05601,-2.664 9.93601,-4.752 v -20.88 z" stroke-width="0" stroke="#000000" fill="#c10000" />
  </g>
</svg>
